# This file uses centimeters as units for non-parametric coordinates.

mtllib wirtCono.mtl
g default
v 2.689140 -0.128418 -0.255476
v 2.549496 -0.102441 -0.534244
v 2.331996 -0.061981 -0.755476
v 2.057929 -0.010998 -0.897516
v 1.754124 0.045518 -0.946459
v 1.450318 0.102033 -0.897516
v 1.176252 0.153016 -0.755476
v 0.958751 0.193476 -0.534244
v 0.819107 0.219453 -0.255476
v 0.770989 0.228404 0.053541
v 0.819107 0.219453 0.362558
v 0.958751 0.193476 0.641327
v 1.176252 0.153016 0.862558
v 1.450318 0.102033 1.004598
v 1.754124 0.045518 1.053541
v 2.057929 -0.010998 1.004598
v 2.331995 -0.061981 0.862558
v 2.549496 -0.102441 0.641327
v 2.689140 -0.128418 0.362558
v 2.737258 -0.137369 0.053541
v 2.360802 3.306803 0.053541
vt 0.737764 0.172746
vt 0.750000 0.250000
vt 0.737764 0.327254
vt 0.702254 0.396946
vt 0.646946 0.452254
vt 0.577254 0.487764
vt 0.500000 0.500000
vt 0.422746 0.487764
vt 0.353054 0.452254
vt 0.297746 0.396946
vt 0.262236 0.327254
vt 0.250000 0.250000
vt 0.262236 0.172746
vt 0.297746 0.103054
vt 0.353054 0.047746
vt 0.422746 0.012236
vt 0.500000 -0.000000
vt 0.577254 0.012236
vt 0.646946 0.047746
vt 0.702254 0.103054
vt 0.250000 0.500000
vt 0.275000 0.500000
vt 0.500000 1.000000
vt 0.300000 0.500000
vt 0.325000 0.500000
vt 0.350000 0.500000
vt 0.375000 0.500000
vt 0.400000 0.500000
vt 0.425000 0.500000
vt 0.450000 0.500000
vt 0.475000 0.500000
vt 0.500000 0.500000
vt 0.525000 0.500000
vt 0.550000 0.500000
vt 0.575000 0.500000
vt 0.600000 0.500000
vt 0.625000 0.500000
vt 0.650000 0.500000
vt 0.675000 0.500000
vt 0.700000 0.500000
vt 0.725000 0.500000
vt 0.750000 0.500000
vn -0.182887 -0.983134 -0.000000
vn -0.182887 -0.983134 -0.000000
vn -0.182887 -0.983134 -0.000000
vn -0.182887 -0.983134 -0.000000
vn -0.182887 -0.983134 -0.000000
vn -0.182887 -0.983134 -0.000000
vn -0.182887 -0.983134 -0.000000
vn -0.182887 -0.983134 -0.000000
vn -0.182887 -0.983134 -0.000000
vn -0.182887 -0.983134 -0.000000
vn -0.182887 -0.983134 -0.000000
vn -0.182887 -0.983134 -0.000000
vn -0.182887 -0.983134 -0.000000
vn -0.182887 -0.983134 -0.000000
vn -0.182887 -0.983134 -0.000000
vn -0.182887 -0.983134 -0.000000
vn -0.182887 -0.983134 -0.000000
vn -0.182887 -0.983134 -0.000000
vn -0.182887 -0.983134 -0.000000
vn -0.182887 -0.983134 -0.000000
vn 0.948010 0.117225 -0.295865
vn 0.814308 0.142097 -0.562770
vn 0.182890 0.983133 -0.000003
vn 0.606064 0.180836 -0.774587
vn 0.343661 0.229649 -0.910581
vn 0.052786 0.283759 -0.957442
vn -0.238090 0.337869 -0.910581
vn -0.500493 0.386682 -0.774586
vn -0.708737 0.425420 -0.562770
vn -0.842437 0.450292 -0.295866
vn -0.888507 0.458862 -0.000000
vn -0.842437 0.450292 0.295866
vn -0.708736 0.425420 0.562770
vn -0.500492 0.386682 0.774587
vn -0.238090 0.337869 0.910581
vn 0.052786 0.283758 0.957442
vn 0.343661 0.229649 0.910581
vn 0.606064 0.180836 0.774587
vn 0.814308 0.142097 0.562770
vn 0.948009 0.117225 0.295866
vn 0.994080 0.108655 0.000001
s off
g polySurface1 pCone2
usemtl lambert3SG
f 1/1/1 20/2/2 19/3/3 18/4/4 17/5/5 16/6/6 15/7/7 14/8/8 13/9/9 12/10/10 11/11/11 10/12/12 9/13/13 8/14/14 7/15/15 6/16/16 5/17/17 4/18/18 3/19/19 2/20/20
s 1
f 1/21/21 2/22/22 21/23/23
f 2/22/22 3/24/24 21/23/23
f 3/24/24 4/25/25 21/23/23
f 4/25/25 5/26/26 21/23/23
f 5/26/26 6/27/27 21/23/23
f 6/27/27 7/28/28 21/23/23
f 7/28/28 8/29/29 21/23/23
f 8/29/29 9/30/30 21/23/23
f 9/30/30 10/31/31 21/23/23
f 10/31/31 11/32/32 21/23/23
f 11/32/32 12/33/33 21/23/23
f 12/33/33 13/34/34 21/23/23
f 13/34/34 14/35/35 21/23/23
f 14/35/35 15/36/36 21/23/23
f 15/36/36 16/37/37 21/23/23
f 16/37/37 17/38/38 21/23/23
f 17/38/38 18/39/39 21/23/23
f 18/39/39 19/40/40 21/23/23
f 19/40/40 20/41/41 21/23/23
f 20/41/41 1/42/21 21/23/23
